<mxfile host="app.diagrams.net" agent="Mozilla/5.0 (Windows NT 10.0; Win64; x64) AppleWebKit/537.36 (KHTML, like Gecko) Chrome/128.0.0.0 YaBrowser/24.10.0.0 Safari/537.36" version="25.0.3">
  <diagram id="C5RBs43oDa-KdzZeNtuy" name="Page-1">
    <mxGraphModel dx="1518" dy="667" grid="1" gridSize="10" guides="1" tooltips="1" connect="1" arrows="1" fold="1" page="1" pageScale="1" pageWidth="827" pageHeight="1169" math="0" shadow="0">
      <root>
        <mxCell id="WIyWlLk6GJQsqaUBKTNV-0" />
        <mxCell id="WIyWlLk6GJQsqaUBKTNV-1" parent="WIyWlLk6GJQsqaUBKTNV-0" />
        <mxCell id="Hb2cL3qtt-of7ul1khQC-0" value="Food" style="swimlane;fontStyle=0;childLayout=stackLayout;horizontal=1;startSize=26;fillColor=none;horizontalStack=0;resizeParent=1;resizeParentMax=0;resizeLast=0;collapsible=1;marginBottom=0;whiteSpace=wrap;html=1;" parent="WIyWlLk6GJQsqaUBKTNV-1" vertex="1">
          <mxGeometry x="240" y="40" width="140" height="78" as="geometry" />
        </mxCell>
        <mxCell id="Hb2cL3qtt-of7ul1khQC-1" value="+ GetName()" style="text;strokeColor=none;fillColor=none;align=left;verticalAlign=top;spacingLeft=4;spacingRight=4;overflow=hidden;rotatable=0;points=[[0,0.5],[1,0.5]];portConstraint=eastwest;whiteSpace=wrap;html=1;" parent="Hb2cL3qtt-of7ul1khQC-0" vertex="1">
          <mxGeometry y="26" width="140" height="26" as="geometry" />
        </mxCell>
        <mxCell id="Hb2cL3qtt-of7ul1khQC-2" value="+ GetDate()" style="text;strokeColor=none;fillColor=none;align=left;verticalAlign=top;spacingLeft=4;spacingRight=4;overflow=hidden;rotatable=0;points=[[0,0.5],[1,0.5]];portConstraint=eastwest;whiteSpace=wrap;html=1;" parent="Hb2cL3qtt-of7ul1khQC-0" vertex="1">
          <mxGeometry y="52" width="140" height="26" as="geometry" />
        </mxCell>
        <mxCell id="Hb2cL3qtt-of7ul1khQC-13" value="ProductBuilder" style="swimlane;fontStyle=0;childLayout=stackLayout;horizontal=1;startSize=26;fillColor=none;horizontalStack=0;resizeParent=1;resizeParentMax=0;resizeLast=0;collapsible=1;marginBottom=0;whiteSpace=wrap;html=1;" parent="WIyWlLk6GJQsqaUBKTNV-1" vertex="1">
          <mxGeometry x="330" y="330" width="150" height="60" as="geometry" />
        </mxCell>
        <mxCell id="Hb2cL3qtt-of7ul1khQC-14" value="+ BuildProduct(): Product" style="text;strokeColor=none;fillColor=none;align=left;verticalAlign=top;spacingLeft=4;spacingRight=4;overflow=hidden;rotatable=0;points=[[0,0.5],[1,0.5]];portConstraint=eastwest;whiteSpace=wrap;html=1;" parent="Hb2cL3qtt-of7ul1khQC-13" vertex="1">
          <mxGeometry y="26" width="150" height="34" as="geometry" />
        </mxCell>
        <mxCell id="Hb2cL3qtt-of7ul1khQC-17" value="Market" style="swimlane;fontStyle=0;childLayout=stackLayout;horizontal=1;startSize=26;fillColor=none;horizontalStack=0;resizeParent=1;resizeParentMax=0;resizeLast=0;collapsible=1;marginBottom=0;whiteSpace=wrap;html=1;" parent="WIyWlLk6GJQsqaUBKTNV-1" vertex="1">
          <mxGeometry x="600" y="330" width="200" height="52" as="geometry" />
        </mxCell>
        <mxCell id="Hb2cL3qtt-of7ul1khQC-18" value="+&amp;nbsp;&lt;span style=&quot;text-align: center;&quot;&gt;ProductBuilder&lt;/span&gt;:&amp;nbsp;&lt;span style=&quot;text-align: center;&quot;&gt;ProductBuilder&lt;/span&gt;" style="text;strokeColor=none;fillColor=none;align=left;verticalAlign=top;spacingLeft=4;spacingRight=4;overflow=hidden;rotatable=0;points=[[0,0.5],[1,0.5]];portConstraint=eastwest;whiteSpace=wrap;html=1;" parent="Hb2cL3qtt-of7ul1khQC-17" vertex="1">
          <mxGeometry y="26" width="200" height="26" as="geometry" />
        </mxCell>
        <mxCell id="Hb2cL3qtt-of7ul1khQC-21" value="&lt;span style=&quot;text-align: left;&quot;&gt;Convenience&lt;/span&gt;" style="swimlane;fontStyle=0;childLayout=stackLayout;horizontal=1;startSize=26;fillColor=none;horizontalStack=0;resizeParent=1;resizeParentMax=0;resizeLast=0;collapsible=1;marginBottom=0;whiteSpace=wrap;html=1;" parent="WIyWlLk6GJQsqaUBKTNV-1" vertex="1">
          <mxGeometry x="430" y="40" width="140" height="78" as="geometry" />
        </mxCell>
        <mxCell id="Hb2cL3qtt-of7ul1khQC-22" value="+ GetName()" style="text;strokeColor=none;fillColor=none;align=left;verticalAlign=top;spacingLeft=4;spacingRight=4;overflow=hidden;rotatable=0;points=[[0,0.5],[1,0.5]];portConstraint=eastwest;whiteSpace=wrap;html=1;" parent="Hb2cL3qtt-of7ul1khQC-21" vertex="1">
          <mxGeometry y="26" width="140" height="26" as="geometry" />
        </mxCell>
        <mxCell id="Hb2cL3qtt-of7ul1khQC-23" value="+ GetDate()" style="text;strokeColor=none;fillColor=none;align=left;verticalAlign=top;spacingLeft=4;spacingRight=4;overflow=hidden;rotatable=0;points=[[0,0.5],[1,0.5]];portConstraint=eastwest;whiteSpace=wrap;html=1;" parent="Hb2cL3qtt-of7ul1khQC-21" vertex="1">
          <mxGeometry y="52" width="140" height="26" as="geometry" />
        </mxCell>
        <mxCell id="Hb2cL3qtt-of7ul1khQC-24" value="Product" style="swimlane;fontStyle=1;align=center;verticalAlign=top;childLayout=stackLayout;horizontal=1;startSize=26;horizontalStack=0;resizeParent=1;resizeParentMax=0;resizeLast=0;collapsible=1;marginBottom=0;whiteSpace=wrap;html=1;" parent="WIyWlLk6GJQsqaUBKTNV-1" vertex="1">
          <mxGeometry x="320" y="170" width="160" height="120" as="geometry" />
        </mxCell>
        <mxCell id="Hb2cL3qtt-of7ul1khQC-25" value="- Food: Food&lt;div&gt;- Convenience&lt;/div&gt;" style="text;strokeColor=none;fillColor=none;align=left;verticalAlign=top;spacingLeft=4;spacingRight=4;overflow=hidden;rotatable=0;points=[[0,0.5],[1,0.5]];portConstraint=eastwest;whiteSpace=wrap;html=1;" parent="Hb2cL3qtt-of7ul1khQC-24" vertex="1">
          <mxGeometry y="26" width="160" height="44" as="geometry" />
        </mxCell>
        <mxCell id="Hb2cL3qtt-of7ul1khQC-26" value="" style="line;strokeWidth=1;fillColor=none;align=left;verticalAlign=middle;spacingTop=-1;spacingLeft=3;spacingRight=3;rotatable=0;labelPosition=right;points=[];portConstraint=eastwest;strokeColor=inherit;" parent="Hb2cL3qtt-of7ul1khQC-24" vertex="1">
          <mxGeometry y="70" width="160" height="8" as="geometry" />
        </mxCell>
        <mxCell id="Hb2cL3qtt-of7ul1khQC-27" value="+ GetName()&lt;div&gt;+ GetDate()&lt;/div&gt;" style="text;strokeColor=none;fillColor=none;align=left;verticalAlign=top;spacingLeft=4;spacingRight=4;overflow=hidden;rotatable=0;points=[[0,0.5],[1,0.5]];portConstraint=eastwest;whiteSpace=wrap;html=1;" parent="Hb2cL3qtt-of7ul1khQC-24" vertex="1">
          <mxGeometry y="78" width="160" height="42" as="geometry" />
        </mxCell>
        <mxCell id="Hb2cL3qtt-of7ul1khQC-28" value="ForeiginProductBuilder" style="swimlane;fontStyle=0;childLayout=stackLayout;horizontal=1;startSize=26;fillColor=none;horizontalStack=0;resizeParent=1;resizeParentMax=0;resizeLast=0;collapsible=1;marginBottom=0;whiteSpace=wrap;html=1;" parent="WIyWlLk6GJQsqaUBKTNV-1" vertex="1">
          <mxGeometry x="190" y="450" width="140" height="52" as="geometry" />
        </mxCell>
        <mxCell id="Hb2cL3qtt-of7ul1khQC-32" value="DomesticProductBuilder" style="swimlane;fontStyle=0;childLayout=stackLayout;horizontal=1;startSize=30;fillColor=none;horizontalStack=0;resizeParent=1;resizeParentMax=0;resizeLast=0;collapsible=1;marginBottom=0;whiteSpace=wrap;html=1;" parent="WIyWlLk6GJQsqaUBKTNV-1" vertex="1">
          <mxGeometry x="480" y="450" width="140" height="52" as="geometry" />
        </mxCell>
        <mxCell id="Hb2cL3qtt-of7ul1khQC-33" value="" style="endArrow=open;endFill=1;endSize=12;html=1;rounded=0;exitX=0.5;exitY=0;exitDx=0;exitDy=0;entryX=0.202;entryY=1.034;entryDx=0;entryDy=0;entryPerimeter=0;" parent="WIyWlLk6GJQsqaUBKTNV-1" source="Hb2cL3qtt-of7ul1khQC-28" target="Hb2cL3qtt-of7ul1khQC-14" edge="1">
          <mxGeometry width="160" relative="1" as="geometry">
            <mxPoint x="440" y="400" as="sourcePoint" />
            <mxPoint x="600" y="400" as="targetPoint" />
          </mxGeometry>
        </mxCell>
        <mxCell id="Hb2cL3qtt-of7ul1khQC-35" value="" style="endArrow=open;endFill=1;endSize=12;html=1;rounded=0;exitX=0.5;exitY=0;exitDx=0;exitDy=0;entryX=0.784;entryY=1.054;entryDx=0;entryDy=0;entryPerimeter=0;" parent="WIyWlLk6GJQsqaUBKTNV-1" source="Hb2cL3qtt-of7ul1khQC-32" target="Hb2cL3qtt-of7ul1khQC-14" edge="1">
          <mxGeometry width="160" relative="1" as="geometry">
            <mxPoint x="440" y="400" as="sourcePoint" />
            <mxPoint x="600" y="400" as="targetPoint" />
          </mxGeometry>
        </mxCell>
        <mxCell id="Hb2cL3qtt-of7ul1khQC-36" value="" style="endArrow=diamondThin;endFill=1;endSize=24;html=1;rounded=0;entryX=0.25;entryY=0;entryDx=0;entryDy=0;" parent="WIyWlLk6GJQsqaUBKTNV-1" target="Hb2cL3qtt-of7ul1khQC-24" edge="1">
          <mxGeometry width="160" relative="1" as="geometry">
            <mxPoint x="310" y="120" as="sourcePoint" />
            <mxPoint x="600" y="320" as="targetPoint" />
          </mxGeometry>
        </mxCell>
        <mxCell id="Hb2cL3qtt-of7ul1khQC-38" value="" style="endArrow=diamondThin;endFill=1;endSize=24;html=1;rounded=0;exitX=0.402;exitY=0.968;exitDx=0;exitDy=0;exitPerimeter=0;entryX=0.656;entryY=0;entryDx=0;entryDy=0;entryPerimeter=0;" parent="WIyWlLk6GJQsqaUBKTNV-1" source="Hb2cL3qtt-of7ul1khQC-23" target="Hb2cL3qtt-of7ul1khQC-24" edge="1">
          <mxGeometry width="160" relative="1" as="geometry">
            <mxPoint x="440" y="240" as="sourcePoint" />
            <mxPoint x="600" y="240" as="targetPoint" />
          </mxGeometry>
        </mxCell>
        <mxCell id="Hb2cL3qtt-of7ul1khQC-39" value="" style="endArrow=diamondThin;endFill=1;endSize=24;html=1;rounded=0;exitX=0.502;exitY=0.996;exitDx=0;exitDy=0;exitPerimeter=0;entryX=0.467;entryY=0;entryDx=0;entryDy=0;entryPerimeter=0;" parent="WIyWlLk6GJQsqaUBKTNV-1" source="Hb2cL3qtt-of7ul1khQC-27" target="Hb2cL3qtt-of7ul1khQC-13" edge="1">
          <mxGeometry width="160" relative="1" as="geometry">
            <mxPoint x="440" y="240" as="sourcePoint" />
            <mxPoint x="600" y="240" as="targetPoint" />
          </mxGeometry>
        </mxCell>
        <mxCell id="Hb2cL3qtt-of7ul1khQC-40" value="" style="endArrow=diamondThin;endFill=1;endSize=24;html=1;rounded=0;exitX=1.007;exitY=0.172;exitDx=0;exitDy=0;exitPerimeter=0;entryX=-0.008;entryY=0.096;entryDx=0;entryDy=0;entryPerimeter=0;" parent="WIyWlLk6GJQsqaUBKTNV-1" source="Hb2cL3qtt-of7ul1khQC-14" target="Hb2cL3qtt-of7ul1khQC-18" edge="1">
          <mxGeometry width="160" relative="1" as="geometry">
            <mxPoint x="440" y="320" as="sourcePoint" />
            <mxPoint x="600" y="320" as="targetPoint" />
          </mxGeometry>
        </mxCell>
        <mxCell id="Hb2cL3qtt-of7ul1khQC-42" value="&lt;p style=&quot;margin:0px;margin-top:4px;text-align:center;&quot;&gt;&lt;b&gt;ProdcutClient&lt;/b&gt;&lt;/p&gt;&lt;hr size=&quot;1&quot; style=&quot;border-style:solid;&quot;&gt;&lt;p style=&quot;margin:0px;margin-left:4px;&quot;&gt;- AbstractProduct:&amp;nbsp;&lt;span style=&quot;background-color: initial;&quot;&gt;AbstractProduct&lt;/span&gt;&lt;/p&gt;&lt;hr size=&quot;1&quot; style=&quot;border-style:solid;&quot;&gt;&lt;p style=&quot;margin:0px;margin-left:4px;&quot;&gt;+ ProductFactory(factory:&lt;span style=&quot;background-color: initial;&quot;&gt;&amp;nbsp;A&lt;/span&gt;&lt;span style=&quot;background-color: initial;&quot;&gt;bstractProductFactory&lt;/span&gt;&lt;span style=&quot;background-color: initial;&quot;&gt;)&lt;/span&gt;&lt;/p&gt;&lt;p style=&quot;margin:0px;margin-left:4px;&quot;&gt;+ Run()&lt;/p&gt;" style="verticalAlign=top;align=left;overflow=fill;html=1;whiteSpace=wrap;" parent="WIyWlLk6GJQsqaUBKTNV-1" vertex="1">
          <mxGeometry x="110" y="680" width="280" height="90" as="geometry" />
        </mxCell>
        <mxCell id="Hb2cL3qtt-of7ul1khQC-43" value="&lt;p style=&quot;margin:0px;margin-top:4px;text-align:center;&quot;&gt;&lt;b&gt;AbstractProdcutFactory&lt;/b&gt;&lt;/p&gt;&lt;hr size=&quot;1&quot; style=&quot;border-style:solid;&quot;&gt;&lt;p style=&quot;margin:0px;margin-left:4px;&quot;&gt;+ AbstractProductFactory()&lt;/p&gt;&lt;p style=&quot;margin:0px;margin-left:4px;&quot;&gt;+ CreateProduct():&amp;nbsp;&lt;span style=&quot;background-color: initial;&quot;&gt;AbstractProduct&lt;/span&gt;&lt;br&gt;&lt;/p&gt;" style="verticalAlign=top;align=left;overflow=fill;html=1;whiteSpace=wrap;" parent="WIyWlLk6GJQsqaUBKTNV-1" vertex="1">
          <mxGeometry x="520" y="690" width="200" height="70" as="geometry" />
        </mxCell>
        <mxCell id="Hb2cL3qtt-of7ul1khQC-44" value="&lt;p style=&quot;margin:0px;margin-top:4px;text-align:center;&quot;&gt;&lt;b&gt;SugarFactory&lt;/b&gt;&lt;/p&gt;&lt;hr size=&quot;1&quot; style=&quot;border-style:solid;&quot;&gt;&lt;p style=&quot;margin:0px;margin-left:4px;&quot;&gt;+ SugarFactory()&lt;br&gt;&lt;/p&gt;&lt;p style=&quot;margin:0px;margin-left:4px;&quot;&gt;+ CreateProduct(): AbstractProduct&lt;/p&gt;" style="verticalAlign=top;align=left;overflow=fill;html=1;whiteSpace=wrap;" parent="WIyWlLk6GJQsqaUBKTNV-1" vertex="1">
          <mxGeometry x="400" y="890" width="200" height="90" as="geometry" />
        </mxCell>
        <mxCell id="Hb2cL3qtt-of7ul1khQC-45" value="&lt;p style=&quot;margin:0px;margin-top:4px;text-align:center;&quot;&gt;&lt;b&gt;Zero&lt;/b&gt;&lt;b style=&quot;background-color: initial;&quot;&gt;Sugar&lt;/b&gt;&lt;b style=&quot;background-color: initial;&quot;&gt;Factory&lt;/b&gt;&lt;/p&gt;&lt;hr size=&quot;1&quot; style=&quot;border-style:solid;&quot;&gt;&lt;p style=&quot;margin: 0px 0px 0px 4px;&quot;&gt;+ ZeroSugarFactory()&lt;br&gt;&lt;/p&gt;&lt;p style=&quot;margin: 0px 0px 0px 4px;&quot;&gt;+ CreateProduct(): AbstractProduct&lt;/p&gt;" style="verticalAlign=top;align=left;overflow=fill;html=1;whiteSpace=wrap;" parent="WIyWlLk6GJQsqaUBKTNV-1" vertex="1">
          <mxGeometry x="630" y="890" width="197" height="90" as="geometry" />
        </mxCell>
        <mxCell id="Hb2cL3qtt-of7ul1khQC-46" value="&lt;p style=&quot;margin:0px;margin-top:4px;text-align:center;&quot;&gt;&lt;b&gt;AbstractProdcut&lt;/b&gt;&lt;/p&gt;&lt;hr size=&quot;1&quot; style=&quot;border-style:solid;&quot;&gt;&lt;p style=&quot;margin:0px;margin-left:4px;&quot;&gt;+ AbstractProduct()&lt;/p&gt;" style="verticalAlign=top;align=left;overflow=fill;html=1;whiteSpace=wrap;" parent="WIyWlLk6GJQsqaUBKTNV-1" vertex="1">
          <mxGeometry x="110" y="890" width="160" height="70" as="geometry" />
        </mxCell>
        <mxCell id="Hb2cL3qtt-of7ul1khQC-47" value="&lt;p style=&quot;margin:0px;margin-top:4px;text-align:center;&quot;&gt;&lt;b style=&quot;background-color: initial;&quot;&gt;Sugar&lt;/b&gt;&lt;b&gt;Prodcut&lt;/b&gt;&lt;/p&gt;&lt;hr size=&quot;1&quot; style=&quot;border-style:solid;&quot;&gt;&lt;p style=&quot;margin:0px;margin-left:4px;&quot;&gt;+&amp;nbsp;&lt;b style=&quot;text-align: center;&quot;&gt;Sugar&lt;/b&gt;&lt;b style=&quot;text-align: center;&quot;&gt;Prodcut&lt;/b&gt;()&lt;/p&gt;" style="verticalAlign=top;align=left;overflow=fill;html=1;whiteSpace=wrap;" parent="WIyWlLk6GJQsqaUBKTNV-1" vertex="1">
          <mxGeometry x="30" y="1040" width="160" height="60" as="geometry" />
        </mxCell>
        <mxCell id="Hb2cL3qtt-of7ul1khQC-48" value="&lt;p style=&quot;margin:0px;margin-top:4px;text-align:center;&quot;&gt;&lt;b style=&quot;background-color: initial;&quot;&gt;ZeroSugar&lt;/b&gt;&lt;b&gt;Prodcut&lt;/b&gt;&lt;/p&gt;&lt;hr size=&quot;1&quot; style=&quot;border-style:solid;&quot;&gt;&lt;p style=&quot;margin:0px;margin-left:4px;&quot;&gt;+&amp;nbsp;&lt;b style=&quot;background-color: initial; text-align: center;&quot;&gt;Zero&lt;/b&gt;&lt;b style=&quot;background-color: initial; text-align: center;&quot;&gt;Sugar&lt;/b&gt;&lt;b style=&quot;background-color: initial; text-align: center;&quot;&gt;Prodcut&lt;/b&gt;&lt;span style=&quot;background-color: initial;&quot;&gt;()&lt;/span&gt;&lt;/p&gt;" style="verticalAlign=top;align=left;overflow=fill;html=1;whiteSpace=wrap;" parent="WIyWlLk6GJQsqaUBKTNV-1" vertex="1">
          <mxGeometry x="220" y="1040" width="160" height="60" as="geometry" />
        </mxCell>
        <mxCell id="Hb2cL3qtt-of7ul1khQC-49" value="" style="endArrow=open;endFill=1;endSize=12;html=1;rounded=0;exitX=0.287;exitY=1.02;exitDx=0;exitDy=0;entryX=0.5;entryY=0;entryDx=0;entryDy=0;exitPerimeter=0;" parent="WIyWlLk6GJQsqaUBKTNV-1" source="Hb2cL3qtt-of7ul1khQC-42" target="Hb2cL3qtt-of7ul1khQC-46" edge="1">
          <mxGeometry width="160" relative="1" as="geometry">
            <mxPoint x="320" y="860" as="sourcePoint" />
            <mxPoint x="480" y="860" as="targetPoint" />
          </mxGeometry>
        </mxCell>
        <mxCell id="Hb2cL3qtt-of7ul1khQC-50" value="Extends" style="endArrow=block;endSize=16;endFill=0;html=1;rounded=0;exitX=0.438;exitY=0;exitDx=0;exitDy=0;exitPerimeter=0;entryX=0.25;entryY=1;entryDx=0;entryDy=0;" parent="WIyWlLk6GJQsqaUBKTNV-1" source="Hb2cL3qtt-of7ul1khQC-47" target="Hb2cL3qtt-of7ul1khQC-46" edge="1">
          <mxGeometry width="160" relative="1" as="geometry">
            <mxPoint x="320" y="860" as="sourcePoint" />
            <mxPoint x="480" y="860" as="targetPoint" />
          </mxGeometry>
        </mxCell>
        <mxCell id="Hb2cL3qtt-of7ul1khQC-51" value="Extends" style="endArrow=block;endSize=16;endFill=0;html=1;rounded=0;exitX=0.5;exitY=0;exitDx=0;exitDy=0;entryX=0.75;entryY=1;entryDx=0;entryDy=0;" parent="WIyWlLk6GJQsqaUBKTNV-1" source="Hb2cL3qtt-of7ul1khQC-48" target="Hb2cL3qtt-of7ul1khQC-46" edge="1">
          <mxGeometry width="160" relative="1" as="geometry">
            <mxPoint x="320" y="940" as="sourcePoint" />
            <mxPoint x="230" y="990" as="targetPoint" />
          </mxGeometry>
        </mxCell>
        <mxCell id="Hb2cL3qtt-of7ul1khQC-52" value="" style="endArrow=open;endFill=1;endSize=12;html=1;rounded=0;exitX=1;exitY=0.5;exitDx=0;exitDy=0;" parent="WIyWlLk6GJQsqaUBKTNV-1" source="Hb2cL3qtt-of7ul1khQC-42" target="Hb2cL3qtt-of7ul1khQC-43" edge="1">
          <mxGeometry width="160" relative="1" as="geometry">
            <mxPoint x="520" y="860" as="sourcePoint" />
            <mxPoint x="680" y="860" as="targetPoint" />
          </mxGeometry>
        </mxCell>
        <mxCell id="Hb2cL3qtt-of7ul1khQC-53" value="Extends" style="endArrow=block;endSize=16;endFill=0;html=1;rounded=0;exitX=0.5;exitY=0;exitDx=0;exitDy=0;entryX=0.25;entryY=1;entryDx=0;entryDy=0;" parent="WIyWlLk6GJQsqaUBKTNV-1" source="Hb2cL3qtt-of7ul1khQC-44" target="Hb2cL3qtt-of7ul1khQC-43" edge="1">
          <mxGeometry width="160" relative="1" as="geometry">
            <mxPoint x="560" y="850" as="sourcePoint" />
            <mxPoint x="720" y="850" as="targetPoint" />
          </mxGeometry>
        </mxCell>
        <mxCell id="Hb2cL3qtt-of7ul1khQC-54" value="Extends" style="endArrow=block;endSize=16;endFill=0;html=1;rounded=0;exitX=0.5;exitY=0;exitDx=0;exitDy=0;entryX=0.75;entryY=1;entryDx=0;entryDy=0;" parent="WIyWlLk6GJQsqaUBKTNV-1" source="Hb2cL3qtt-of7ul1khQC-45" target="Hb2cL3qtt-of7ul1khQC-43" edge="1">
          <mxGeometry width="160" relative="1" as="geometry">
            <mxPoint x="560" y="850" as="sourcePoint" />
            <mxPoint x="720" y="850" as="targetPoint" />
          </mxGeometry>
        </mxCell>
        <mxCell id="Hb2cL3qtt-of7ul1khQC-58" value="" style="endArrow=block;dashed=1;endFill=0;endSize=12;html=1;rounded=0;exitX=0;exitY=1;exitDx=0;exitDy=0;entryX=1;entryY=0;entryDx=0;entryDy=0;" parent="WIyWlLk6GJQsqaUBKTNV-1" source="Hb2cL3qtt-of7ul1khQC-43" target="Hb2cL3qtt-of7ul1khQC-46" edge="1">
          <mxGeometry width="160" relative="1" as="geometry">
            <mxPoint x="410" y="890" as="sourcePoint" />
            <mxPoint x="570" y="890" as="targetPoint" />
          </mxGeometry>
        </mxCell>
        <mxCell id="Hb2cL3qtt-of7ul1khQC-59" value="Store" style="swimlane;fontStyle=1;align=center;verticalAlign=top;childLayout=stackLayout;horizontal=1;startSize=26;horizontalStack=0;resizeParent=1;resizeParentMax=0;resizeLast=0;collapsible=1;marginBottom=0;whiteSpace=wrap;html=1;" parent="WIyWlLk6GJQsqaUBKTNV-1" vertex="1">
          <mxGeometry x="281" y="1380" width="209" height="130" as="geometry" />
        </mxCell>
        <mxCell id="Hb2cL3qtt-of7ul1khQC-60" value="- Instance" style="text;strokeColor=none;fillColor=none;align=left;verticalAlign=top;spacingLeft=4;spacingRight=4;overflow=hidden;rotatable=0;points=[[0,0.5],[1,0.5]];portConstraint=eastwest;whiteSpace=wrap;html=1;" parent="Hb2cL3qtt-of7ul1khQC-59" vertex="1">
          <mxGeometry y="26" width="209" height="26" as="geometry" />
        </mxCell>
        <mxCell id="Hb2cL3qtt-of7ul1khQC-61" value="" style="line;strokeWidth=1;fillColor=none;align=left;verticalAlign=middle;spacingTop=-1;spacingLeft=3;spacingRight=3;rotatable=0;labelPosition=right;points=[];portConstraint=eastwest;strokeColor=inherit;" parent="Hb2cL3qtt-of7ul1khQC-59" vertex="1">
          <mxGeometry y="52" width="209" height="8" as="geometry" />
        </mxCell>
        <mxCell id="Hb2cL3qtt-of7ul1khQC-62" value="+ GetInstance() : Store&lt;div&gt;+ AddProduct(product: Product)&lt;br&gt;&lt;div&gt;+ GetProducts() : Products[]&lt;/div&gt;&lt;/div&gt;" style="text;strokeColor=none;fillColor=none;align=left;verticalAlign=top;spacingLeft=4;spacingRight=4;overflow=hidden;rotatable=0;points=[[0,0.5],[1,0.5]];portConstraint=eastwest;whiteSpace=wrap;html=1;" parent="Hb2cL3qtt-of7ul1khQC-59" vertex="1">
          <mxGeometry y="60" width="209" height="70" as="geometry" />
        </mxCell>
        <mxCell id="Hb2cL3qtt-of7ul1khQC-63" value="Product" style="swimlane;fontStyle=1;align=center;verticalAlign=top;childLayout=stackLayout;horizontal=1;startSize=26;horizontalStack=0;resizeParent=1;resizeParentMax=0;resizeLast=0;collapsible=1;marginBottom=0;whiteSpace=wrap;html=1;" parent="WIyWlLk6GJQsqaUBKTNV-1" vertex="1">
          <mxGeometry x="281" y="1640" width="209" height="90" as="geometry" />
        </mxCell>
        <mxCell id="Vc5DjY2IOqyrCnSLLBrK-0" value="IObserver" style="swimlane;fontStyle=1;align=center;verticalAlign=top;childLayout=stackLayout;horizontal=1;startSize=26;horizontalStack=0;resizeParent=1;resizeParentMax=0;resizeLast=0;collapsible=1;marginBottom=0;whiteSpace=wrap;html=1;" vertex="1" parent="WIyWlLk6GJQsqaUBKTNV-1">
          <mxGeometry x="1161" y="70" width="159" height="100" as="geometry" />
        </mxCell>
        <mxCell id="Vc5DjY2IOqyrCnSLLBrK-4" value="MarketStorage" style="swimlane;fontStyle=1;align=center;verticalAlign=top;childLayout=stackLayout;horizontal=1;startSize=26;horizontalStack=0;resizeParent=1;resizeParentMax=0;resizeLast=0;collapsible=1;marginBottom=0;whiteSpace=wrap;html=1;" vertex="1" parent="WIyWlLk6GJQsqaUBKTNV-1">
          <mxGeometry x="1060" y="280" width="160" height="100" as="geometry" />
        </mxCell>
        <mxCell id="Vc5DjY2IOqyrCnSLLBrK-5" value="- Product: IProduct[]" style="text;strokeColor=none;fillColor=none;align=left;verticalAlign=top;spacingLeft=4;spacingRight=4;overflow=hidden;rotatable=0;points=[[0,0.5],[1,0.5]];portConstraint=eastwest;whiteSpace=wrap;html=1;" vertex="1" parent="Vc5DjY2IOqyrCnSLLBrK-4">
          <mxGeometry y="26" width="160" height="24" as="geometry" />
        </mxCell>
        <mxCell id="Vc5DjY2IOqyrCnSLLBrK-6" value="" style="line;strokeWidth=1;fillColor=none;align=left;verticalAlign=middle;spacingTop=-1;spacingLeft=3;spacingRight=3;rotatable=0;labelPosition=right;points=[];portConstraint=eastwest;strokeColor=inherit;" vertex="1" parent="Vc5DjY2IOqyrCnSLLBrK-4">
          <mxGeometry y="50" width="160" height="8" as="geometry" />
        </mxCell>
        <mxCell id="Vc5DjY2IOqyrCnSLLBrK-7" value="+ GetCount(product_id)" style="text;strokeColor=none;fillColor=none;align=left;verticalAlign=top;spacingLeft=4;spacingRight=4;overflow=hidden;rotatable=0;points=[[0,0.5],[1,0.5]];portConstraint=eastwest;whiteSpace=wrap;html=1;" vertex="1" parent="Vc5DjY2IOqyrCnSLLBrK-4">
          <mxGeometry y="58" width="160" height="42" as="geometry" />
        </mxCell>
        <mxCell id="Vc5DjY2IOqyrCnSLLBrK-8" value="IObservable" style="swimlane;fontStyle=1;align=center;verticalAlign=top;childLayout=stackLayout;horizontal=1;startSize=26;horizontalStack=0;resizeParent=1;resizeParentMax=0;resizeLast=0;collapsible=1;marginBottom=0;whiteSpace=wrap;html=1;" vertex="1" parent="WIyWlLk6GJQsqaUBKTNV-1">
          <mxGeometry x="1460" y="60" width="160" height="130" as="geometry" />
        </mxCell>
        <mxCell id="Vc5DjY2IOqyrCnSLLBrK-9" value="- Observers: IObserver[]" style="text;strokeColor=none;fillColor=none;align=left;verticalAlign=top;spacingLeft=4;spacingRight=4;overflow=hidden;rotatable=0;points=[[0,0.5],[1,0.5]];portConstraint=eastwest;whiteSpace=wrap;html=1;" vertex="1" parent="Vc5DjY2IOqyrCnSLLBrK-8">
          <mxGeometry y="26" width="160" height="34" as="geometry" />
        </mxCell>
        <mxCell id="Vc5DjY2IOqyrCnSLLBrK-10" value="" style="line;strokeWidth=1;fillColor=none;align=left;verticalAlign=middle;spacingTop=-1;spacingLeft=3;spacingRight=3;rotatable=0;labelPosition=right;points=[];portConstraint=eastwest;strokeColor=inherit;" vertex="1" parent="Vc5DjY2IOqyrCnSLLBrK-8">
          <mxGeometry y="60" width="160" height="8" as="geometry" />
        </mxCell>
        <mxCell id="Vc5DjY2IOqyrCnSLLBrK-11" value="+ AddObserver()&lt;div&gt;+ RemoveObserver()&lt;/div&gt;&lt;div&gt;+ NotifyObservers()&lt;/div&gt;" style="text;strokeColor=none;fillColor=none;align=left;verticalAlign=top;spacingLeft=4;spacingRight=4;overflow=hidden;rotatable=0;points=[[0,0.5],[1,0.5]];portConstraint=eastwest;whiteSpace=wrap;html=1;" vertex="1" parent="Vc5DjY2IOqyrCnSLLBrK-8">
          <mxGeometry y="68" width="160" height="62" as="geometry" />
        </mxCell>
        <mxCell id="Vc5DjY2IOqyrCnSLLBrK-12" value="Purchase" style="swimlane;fontStyle=1;align=center;verticalAlign=top;childLayout=stackLayout;horizontal=1;startSize=26;horizontalStack=0;resizeParent=1;resizeParentMax=0;resizeLast=0;collapsible=1;marginBottom=0;whiteSpace=wrap;html=1;" vertex="1" parent="WIyWlLk6GJQsqaUBKTNV-1">
          <mxGeometry x="1470" y="270" width="160" height="110" as="geometry" />
        </mxCell>
        <mxCell id="Vc5DjY2IOqyrCnSLLBrK-17" value="Website" style="swimlane;fontStyle=1;align=center;verticalAlign=top;childLayout=stackLayout;horizontal=1;startSize=26;horizontalStack=0;resizeParent=1;resizeParentMax=0;resizeLast=0;collapsible=1;marginBottom=0;whiteSpace=wrap;html=1;" vertex="1" parent="WIyWlLk6GJQsqaUBKTNV-1">
          <mxGeometry x="1260" y="280" width="160" height="100" as="geometry" />
        </mxCell>
        <mxCell id="Vc5DjY2IOqyrCnSLLBrK-18" value="- Product: IProduct[]" style="text;strokeColor=none;fillColor=none;align=left;verticalAlign=top;spacingLeft=4;spacingRight=4;overflow=hidden;rotatable=0;points=[[0,0.5],[1,0.5]];portConstraint=eastwest;whiteSpace=wrap;html=1;" vertex="1" parent="Vc5DjY2IOqyrCnSLLBrK-17">
          <mxGeometry y="26" width="160" height="24" as="geometry" />
        </mxCell>
        <mxCell id="Vc5DjY2IOqyrCnSLLBrK-19" value="" style="line;strokeWidth=1;fillColor=none;align=left;verticalAlign=middle;spacingTop=-1;spacingLeft=3;spacingRight=3;rotatable=0;labelPosition=right;points=[];portConstraint=eastwest;strokeColor=inherit;" vertex="1" parent="Vc5DjY2IOqyrCnSLLBrK-17">
          <mxGeometry y="50" width="160" height="8" as="geometry" />
        </mxCell>
        <mxCell id="Vc5DjY2IOqyrCnSLLBrK-20" value="+ GetCount(product_id)" style="text;strokeColor=none;fillColor=none;align=left;verticalAlign=top;spacingLeft=4;spacingRight=4;overflow=hidden;rotatable=0;points=[[0,0.5],[1,0.5]];portConstraint=eastwest;whiteSpace=wrap;html=1;" vertex="1" parent="Vc5DjY2IOqyrCnSLLBrK-17">
          <mxGeometry y="58" width="160" height="42" as="geometry" />
        </mxCell>
        <mxCell id="Vc5DjY2IOqyrCnSLLBrK-21" value="" style="endArrow=classic;html=1;rounded=0;exitX=0.5;exitY=0;exitDx=0;exitDy=0;entryX=0.25;entryY=1;entryDx=0;entryDy=0;" edge="1" parent="WIyWlLk6GJQsqaUBKTNV-1" source="Vc5DjY2IOqyrCnSLLBrK-4" target="Vc5DjY2IOqyrCnSLLBrK-0">
          <mxGeometry width="50" height="50" relative="1" as="geometry">
            <mxPoint x="1210" y="200" as="sourcePoint" />
            <mxPoint x="1260" y="150" as="targetPoint" />
          </mxGeometry>
        </mxCell>
        <mxCell id="Vc5DjY2IOqyrCnSLLBrK-22" value="" style="endArrow=classic;html=1;rounded=0;exitX=0.5;exitY=0;exitDx=0;exitDy=0;" edge="1" parent="WIyWlLk6GJQsqaUBKTNV-1" source="Vc5DjY2IOqyrCnSLLBrK-17">
          <mxGeometry width="50" height="50" relative="1" as="geometry">
            <mxPoint x="1210" y="200" as="sourcePoint" />
            <mxPoint x="1280" y="170" as="targetPoint" />
          </mxGeometry>
        </mxCell>
        <mxCell id="Vc5DjY2IOqyrCnSLLBrK-23" value="" style="endArrow=diamondThin;endFill=1;endSize=24;html=1;rounded=0;entryX=-0.001;entryY=-0.019;entryDx=0;entryDy=0;entryPerimeter=0;" edge="1" parent="WIyWlLk6GJQsqaUBKTNV-1" target="Vc5DjY2IOqyrCnSLLBrK-11">
          <mxGeometry width="160" relative="1" as="geometry">
            <mxPoint x="1320" y="130" as="sourcePoint" />
            <mxPoint x="1320" y="170" as="targetPoint" />
          </mxGeometry>
        </mxCell>
        <mxCell id="Vc5DjY2IOqyrCnSLLBrK-24" value="" style="endArrow=classic;html=1;rounded=0;exitX=0.5;exitY=0;exitDx=0;exitDy=0;entryX=0.529;entryY=0.987;entryDx=0;entryDy=0;entryPerimeter=0;" edge="1" parent="WIyWlLk6GJQsqaUBKTNV-1" source="Vc5DjY2IOqyrCnSLLBrK-12" target="Vc5DjY2IOqyrCnSLLBrK-11">
          <mxGeometry width="50" height="50" relative="1" as="geometry">
            <mxPoint x="1350" y="290" as="sourcePoint" />
            <mxPoint x="1290" y="180" as="targetPoint" />
          </mxGeometry>
        </mxCell>
        <mxCell id="Vc5DjY2IOqyrCnSLLBrK-25" value="MarketIssuance" style="swimlane;fontStyle=1;align=center;verticalAlign=top;childLayout=stackLayout;horizontal=1;startSize=26;horizontalStack=0;resizeParent=1;resizeParentMax=0;resizeLast=0;collapsible=1;marginBottom=0;whiteSpace=wrap;html=1;" vertex="1" parent="WIyWlLk6GJQsqaUBKTNV-1">
          <mxGeometry x="1350" y="485" width="160" height="90" as="geometry" />
        </mxCell>
        <mxCell id="Vc5DjY2IOqyrCnSLLBrK-26" value="- IAccount: IAccount[]" style="text;strokeColor=none;fillColor=none;align=left;verticalAlign=top;spacingLeft=4;spacingRight=4;overflow=hidden;rotatable=0;points=[[0,0.5],[1,0.5]];portConstraint=eastwest;whiteSpace=wrap;html=1;" vertex="1" parent="Vc5DjY2IOqyrCnSLLBrK-25">
          <mxGeometry y="26" width="160" height="64" as="geometry" />
        </mxCell>
        <mxCell id="Vc5DjY2IOqyrCnSLLBrK-30" value="IAccoubt" style="swimlane;fontStyle=1;align=center;verticalAlign=top;childLayout=stackLayout;horizontal=1;startSize=26;horizontalStack=0;resizeParent=1;resizeParentMax=0;resizeLast=0;collapsible=1;marginBottom=0;whiteSpace=wrap;html=1;" vertex="1" parent="WIyWlLk6GJQsqaUBKTNV-1">
          <mxGeometry x="1350" y="650" width="160" height="90" as="geometry" />
        </mxCell>
        <mxCell id="Vc5DjY2IOqyrCnSLLBrK-31" value="+ Accept(IVisitor:&amp;nbsp; IVisitor)" style="text;strokeColor=none;fillColor=none;align=left;verticalAlign=top;spacingLeft=4;spacingRight=4;overflow=hidden;rotatable=0;points=[[0,0.5],[1,0.5]];portConstraint=eastwest;whiteSpace=wrap;html=1;" vertex="1" parent="Vc5DjY2IOqyrCnSLLBrK-30">
          <mxGeometry y="26" width="160" height="64" as="geometry" />
        </mxCell>
        <mxCell id="Vc5DjY2IOqyrCnSLLBrK-32" value="Employee" style="swimlane;fontStyle=1;align=center;verticalAlign=top;childLayout=stackLayout;horizontal=1;startSize=26;horizontalStack=0;resizeParent=1;resizeParentMax=0;resizeLast=0;collapsible=1;marginBottom=0;whiteSpace=wrap;html=1;" vertex="1" parent="WIyWlLk6GJQsqaUBKTNV-1">
          <mxGeometry x="1050" y="560" width="200" height="90" as="geometry" />
        </mxCell>
        <mxCell id="Vc5DjY2IOqyrCnSLLBrK-39" value="+ SellProduct(Product: IProduct, Client: Client)" style="text;strokeColor=none;fillColor=none;align=left;verticalAlign=top;spacingLeft=4;spacingRight=4;overflow=hidden;rotatable=0;points=[[0,0.5],[1,0.5]];portConstraint=eastwest;whiteSpace=wrap;html=1;" vertex="1" parent="Vc5DjY2IOqyrCnSLLBrK-32">
          <mxGeometry y="26" width="200" height="64" as="geometry" />
        </mxCell>
        <mxCell id="Vc5DjY2IOqyrCnSLLBrK-34" value="IVisitor" style="swimlane;fontStyle=1;align=center;verticalAlign=top;childLayout=stackLayout;horizontal=1;startSize=26;horizontalStack=0;resizeParent=1;resizeParentMax=0;resizeLast=0;collapsible=1;marginBottom=0;whiteSpace=wrap;html=1;" vertex="1" parent="WIyWlLk6GJQsqaUBKTNV-1">
          <mxGeometry x="1660" y="650" width="220" height="90" as="geometry" />
        </mxCell>
        <mxCell id="Vc5DjY2IOqyrCnSLLBrK-35" value="+ VisitEmployee(Employe: Employe)&lt;div&gt;+ VisitClient(Client: Client)&lt;/div&gt;" style="text;strokeColor=none;fillColor=none;align=left;verticalAlign=top;spacingLeft=4;spacingRight=4;overflow=hidden;rotatable=0;points=[[0,0.5],[1,0.5]];portConstraint=eastwest;whiteSpace=wrap;html=1;" vertex="1" parent="Vc5DjY2IOqyrCnSLLBrK-34">
          <mxGeometry y="26" width="220" height="64" as="geometry" />
        </mxCell>
        <mxCell id="Vc5DjY2IOqyrCnSLLBrK-36" value="Manager&lt;span style=&quot;background-color: initial;&quot;&gt;Visitor&lt;/span&gt;" style="swimlane;fontStyle=1;align=center;verticalAlign=top;childLayout=stackLayout;horizontal=1;startSize=26;horizontalStack=0;resizeParent=1;resizeParentMax=0;resizeLast=0;collapsible=1;marginBottom=0;whiteSpace=wrap;html=1;" vertex="1" parent="WIyWlLk6GJQsqaUBKTNV-1">
          <mxGeometry x="1500" y="830" width="160" height="90" as="geometry" />
        </mxCell>
        <mxCell id="Vc5DjY2IOqyrCnSLLBrK-40" value="Client" style="swimlane;fontStyle=1;align=center;verticalAlign=top;childLayout=stackLayout;horizontal=1;startSize=26;horizontalStack=0;resizeParent=1;resizeParentMax=0;resizeLast=0;collapsible=1;marginBottom=0;whiteSpace=wrap;html=1;" vertex="1" parent="WIyWlLk6GJQsqaUBKTNV-1">
          <mxGeometry x="1060" y="770" width="200" height="90" as="geometry" />
        </mxCell>
        <mxCell id="Vc5DjY2IOqyrCnSLLBrK-41" value="+ BuyProduct(Product: IProduct)" style="text;strokeColor=none;fillColor=none;align=left;verticalAlign=top;spacingLeft=4;spacingRight=4;overflow=hidden;rotatable=0;points=[[0,0.5],[1,0.5]];portConstraint=eastwest;whiteSpace=wrap;html=1;" vertex="1" parent="Vc5DjY2IOqyrCnSLLBrK-40">
          <mxGeometry y="26" width="200" height="64" as="geometry" />
        </mxCell>
        <mxCell id="Vc5DjY2IOqyrCnSLLBrK-42" value="MarketerVisitor" style="swimlane;fontStyle=1;align=center;verticalAlign=top;childLayout=stackLayout;horizontal=1;startSize=26;horizontalStack=0;resizeParent=1;resizeParentMax=0;resizeLast=0;collapsible=1;marginBottom=0;whiteSpace=wrap;html=1;" vertex="1" parent="WIyWlLk6GJQsqaUBKTNV-1">
          <mxGeometry x="1860" y="820" width="160" height="90" as="geometry" />
        </mxCell>
        <mxCell id="Vc5DjY2IOqyrCnSLLBrK-44" value="" style="endArrow=open;endFill=1;endSize=12;html=1;rounded=0;exitX=0.5;exitY=0;exitDx=0;exitDy=0;entryX=0.235;entryY=1.013;entryDx=0;entryDy=0;entryPerimeter=0;" edge="1" parent="WIyWlLk6GJQsqaUBKTNV-1" source="Vc5DjY2IOqyrCnSLLBrK-36" target="Vc5DjY2IOqyrCnSLLBrK-35">
          <mxGeometry width="160" relative="1" as="geometry">
            <mxPoint x="1250" y="880" as="sourcePoint" />
            <mxPoint x="1410" y="880" as="targetPoint" />
          </mxGeometry>
        </mxCell>
        <mxCell id="Vc5DjY2IOqyrCnSLLBrK-45" value="" style="endArrow=open;endFill=1;endSize=12;html=1;rounded=0;exitX=0.5;exitY=0;exitDx=0;exitDy=0;entryX=0.759;entryY=1;entryDx=0;entryDy=0;entryPerimeter=0;" edge="1" parent="WIyWlLk6GJQsqaUBKTNV-1" source="Vc5DjY2IOqyrCnSLLBrK-42" target="Vc5DjY2IOqyrCnSLLBrK-35">
          <mxGeometry width="160" relative="1" as="geometry">
            <mxPoint x="1280" y="880" as="sourcePoint" />
            <mxPoint x="1440" y="880" as="targetPoint" />
          </mxGeometry>
        </mxCell>
        <mxCell id="Vc5DjY2IOqyrCnSLLBrK-46" value="" style="endArrow=open;endFill=1;endSize=12;html=1;rounded=0;exitX=1.007;exitY=0.369;exitDx=0;exitDy=0;exitPerimeter=0;" edge="1" parent="WIyWlLk6GJQsqaUBKTNV-1" source="Vc5DjY2IOqyrCnSLLBrK-41">
          <mxGeometry width="160" relative="1" as="geometry">
            <mxPoint x="1190" y="730" as="sourcePoint" />
            <mxPoint x="1350" y="730" as="targetPoint" />
          </mxGeometry>
        </mxCell>
        <mxCell id="Vc5DjY2IOqyrCnSLLBrK-47" value="" style="endArrow=open;endFill=1;endSize=12;html=1;rounded=0;exitX=1;exitY=0.5;exitDx=0;exitDy=0;entryX=0.001;entryY=-0.019;entryDx=0;entryDy=0;entryPerimeter=0;" edge="1" parent="WIyWlLk6GJQsqaUBKTNV-1" source="Vc5DjY2IOqyrCnSLLBrK-39" target="Vc5DjY2IOqyrCnSLLBrK-31">
          <mxGeometry width="160" relative="1" as="geometry">
            <mxPoint x="1190" y="730" as="sourcePoint" />
            <mxPoint x="1350" y="730" as="targetPoint" />
          </mxGeometry>
        </mxCell>
        <mxCell id="Vc5DjY2IOqyrCnSLLBrK-48" value="" style="endArrow=diamondThin;endFill=1;endSize=24;html=1;rounded=0;exitX=0.5;exitY=0;exitDx=0;exitDy=0;entryX=0.501;entryY=1.022;entryDx=0;entryDy=0;entryPerimeter=0;" edge="1" parent="WIyWlLk6GJQsqaUBKTNV-1" source="Vc5DjY2IOqyrCnSLLBrK-30" target="Vc5DjY2IOqyrCnSLLBrK-26">
          <mxGeometry width="160" relative="1" as="geometry">
            <mxPoint x="1320" y="610" as="sourcePoint" />
            <mxPoint x="1480" y="610" as="targetPoint" />
          </mxGeometry>
        </mxCell>
        <mxCell id="Vc5DjY2IOqyrCnSLLBrK-50" value="" style="line;strokeWidth=1;fillColor=none;align=left;verticalAlign=middle;spacingTop=-1;spacingLeft=3;spacingRight=3;rotatable=0;labelPosition=right;points=[];portConstraint=eastwest;strokeColor=inherit;" vertex="1" parent="WIyWlLk6GJQsqaUBKTNV-1">
          <mxGeometry x="1510" y="605" width="150" height="180" as="geometry" />
        </mxCell>
        <mxCell id="Vc5DjY2IOqyrCnSLLBrK-55" value="OrderProcessing" style="swimlane;fontStyle=1;align=center;verticalAlign=top;childLayout=stackLayout;horizontal=1;startSize=26;horizontalStack=0;resizeParent=1;resizeParentMax=0;resizeLast=0;collapsible=1;marginBottom=0;whiteSpace=wrap;html=1;" vertex="1" parent="WIyWlLk6GJQsqaUBKTNV-1">
          <mxGeometry x="1180" y="1100" width="200" height="120" as="geometry" />
        </mxCell>
        <mxCell id="Vc5DjY2IOqyrCnSLLBrK-56" value="+ BuyProduct(Product: IProduct)&lt;div&gt;+ Pay()&lt;/div&gt;&lt;div&gt;+ CreateCheck()&lt;/div&gt;&lt;div&gt;+ Template()&lt;/div&gt;" style="text;strokeColor=none;fillColor=none;align=left;verticalAlign=top;spacingLeft=4;spacingRight=4;overflow=hidden;rotatable=0;points=[[0,0.5],[1,0.5]];portConstraint=eastwest;whiteSpace=wrap;html=1;" vertex="1" parent="Vc5DjY2IOqyrCnSLLBrK-55">
          <mxGeometry y="26" width="200" height="94" as="geometry" />
        </mxCell>
        <mxCell id="Vc5DjY2IOqyrCnSLLBrK-57" value="WebOrderProcessing" style="swimlane;fontStyle=1;align=center;verticalAlign=top;childLayout=stackLayout;horizontal=1;startSize=26;horizontalStack=0;resizeParent=1;resizeParentMax=0;resizeLast=0;collapsible=1;marginBottom=0;whiteSpace=wrap;html=1;" vertex="1" parent="WIyWlLk6GJQsqaUBKTNV-1">
          <mxGeometry x="1484" y="1050" width="210" height="90" as="geometry" />
        </mxCell>
        <mxCell id="Vc5DjY2IOqyrCnSLLBrK-58" value="+ BuyProduct(Product: IProduct)&lt;div&gt;+ Pay()&lt;/div&gt;&lt;div&gt;+ CreateCheck()&lt;/div&gt;" style="text;strokeColor=none;fillColor=none;align=left;verticalAlign=top;spacingLeft=4;spacingRight=4;overflow=hidden;rotatable=0;points=[[0,0.5],[1,0.5]];portConstraint=eastwest;whiteSpace=wrap;html=1;" vertex="1" parent="Vc5DjY2IOqyrCnSLLBrK-57">
          <mxGeometry y="26" width="210" height="64" as="geometry" />
        </mxCell>
        <mxCell id="Vc5DjY2IOqyrCnSLLBrK-59" value="CallOrderProcessing" style="swimlane;fontStyle=1;align=center;verticalAlign=top;childLayout=stackLayout;horizontal=1;startSize=26;horizontalStack=0;resizeParent=1;resizeParentMax=0;resizeLast=0;collapsible=1;marginBottom=0;whiteSpace=wrap;html=1;" vertex="1" parent="WIyWlLk6GJQsqaUBKTNV-1">
          <mxGeometry x="1484" y="1190" width="210" height="90" as="geometry" />
        </mxCell>
        <mxCell id="Vc5DjY2IOqyrCnSLLBrK-60" value="+ BuyProduct(Product: IProduct)&lt;div&gt;+ Pay()&lt;/div&gt;&lt;div&gt;+ CreateCheck()&lt;/div&gt;" style="text;strokeColor=none;fillColor=none;align=left;verticalAlign=top;spacingLeft=4;spacingRight=4;overflow=hidden;rotatable=0;points=[[0,0.5],[1,0.5]];portConstraint=eastwest;whiteSpace=wrap;html=1;" vertex="1" parent="Vc5DjY2IOqyrCnSLLBrK-59">
          <mxGeometry y="26" width="210" height="64" as="geometry" />
        </mxCell>
        <mxCell id="Vc5DjY2IOqyrCnSLLBrK-61" value="Extends" style="endArrow=block;endSize=16;endFill=0;html=1;rounded=0;exitX=0;exitY=0.5;exitDx=0;exitDy=0;entryX=1.001;entryY=0.198;entryDx=0;entryDy=0;entryPerimeter=0;" edge="1" parent="WIyWlLk6GJQsqaUBKTNV-1" source="Vc5DjY2IOqyrCnSLLBrK-58" target="Vc5DjY2IOqyrCnSLLBrK-56">
          <mxGeometry width="160" relative="1" as="geometry">
            <mxPoint x="739" y="900" as="sourcePoint" />
            <mxPoint x="680" y="770" as="targetPoint" />
          </mxGeometry>
        </mxCell>
        <mxCell id="Vc5DjY2IOqyrCnSLLBrK-62" value="Extends" style="endArrow=block;endSize=16;endFill=0;html=1;rounded=0;exitX=-0.014;exitY=0.407;exitDx=0;exitDy=0;entryX=1.014;entryY=0.647;entryDx=0;entryDy=0;exitPerimeter=0;entryPerimeter=0;" edge="1" parent="WIyWlLk6GJQsqaUBKTNV-1" source="Vc5DjY2IOqyrCnSLLBrK-60" target="Vc5DjY2IOqyrCnSLLBrK-56">
          <mxGeometry width="160" relative="1" as="geometry">
            <mxPoint x="749" y="910" as="sourcePoint" />
            <mxPoint x="690" y="780" as="targetPoint" />
          </mxGeometry>
        </mxCell>
        <mxCell id="Vc5DjY2IOqyrCnSLLBrK-71" value="IProduct" style="swimlane;fontStyle=1;align=center;verticalAlign=top;childLayout=stackLayout;horizontal=1;startSize=26;horizontalStack=0;resizeParent=1;resizeParentMax=0;resizeLast=0;collapsible=1;marginBottom=0;whiteSpace=wrap;html=1;" vertex="1" parent="WIyWlLk6GJQsqaUBKTNV-1">
          <mxGeometry x="1175.5" y="1300" width="209" height="90" as="geometry" />
        </mxCell>
        <mxCell id="Vc5DjY2IOqyrCnSLLBrK-74" value="IProduct" style="swimlane;fontStyle=1;align=center;verticalAlign=top;childLayout=stackLayout;horizontal=1;startSize=26;horizontalStack=0;resizeParent=1;resizeParentMax=0;resizeLast=0;collapsible=1;marginBottom=0;whiteSpace=wrap;html=1;" vertex="1" parent="WIyWlLk6GJQsqaUBKTNV-1">
          <mxGeometry x="860" y="670" width="209" height="90" as="geometry" />
        </mxCell>
        <mxCell id="Vc5DjY2IOqyrCnSLLBrK-75" value="IProduct" style="swimlane;fontStyle=1;align=center;verticalAlign=top;childLayout=stackLayout;horizontal=1;startSize=26;horizontalStack=0;resizeParent=1;resizeParentMax=0;resizeLast=0;collapsible=1;marginBottom=0;whiteSpace=wrap;html=1;" vertex="1" parent="WIyWlLk6GJQsqaUBKTNV-1">
          <mxGeometry x="1130" y="440" width="209" height="90" as="geometry" />
        </mxCell>
        <mxCell id="Vc5DjY2IOqyrCnSLLBrK-86" value="" style="endArrow=diamondThin;endFill=1;endSize=24;html=1;rounded=0;exitX=0.25;exitY=0;exitDx=0;exitDy=0;" edge="1" parent="WIyWlLk6GJQsqaUBKTNV-1" source="Vc5DjY2IOqyrCnSLLBrK-75" target="Vc5DjY2IOqyrCnSLLBrK-7">
          <mxGeometry width="160" relative="1" as="geometry">
            <mxPoint x="1460" y="680" as="sourcePoint" />
            <mxPoint x="1460" y="606" as="targetPoint" />
          </mxGeometry>
        </mxCell>
        <mxCell id="Vc5DjY2IOqyrCnSLLBrK-87" value="" style="endArrow=diamondThin;endFill=1;endSize=24;html=1;rounded=0;exitX=0.75;exitY=0;exitDx=0;exitDy=0;entryX=0.428;entryY=0.981;entryDx=0;entryDy=0;entryPerimeter=0;" edge="1" parent="WIyWlLk6GJQsqaUBKTNV-1" source="Vc5DjY2IOqyrCnSLLBrK-75" target="Vc5DjY2IOqyrCnSLLBrK-20">
          <mxGeometry width="160" relative="1" as="geometry">
            <mxPoint x="1470" y="690" as="sourcePoint" />
            <mxPoint x="1347" y="385" as="targetPoint" />
          </mxGeometry>
        </mxCell>
        <mxCell id="Vc5DjY2IOqyrCnSLLBrK-89" value="" style="endArrow=block;dashed=1;endFill=0;endSize=12;html=1;rounded=0;exitX=0.5;exitY=0;exitDx=0;exitDy=0;entryX=0;entryY=0.5;entryDx=0;entryDy=0;" edge="1" parent="WIyWlLk6GJQsqaUBKTNV-1" source="Vc5DjY2IOqyrCnSLLBrK-74" target="Vc5DjY2IOqyrCnSLLBrK-39">
          <mxGeometry width="160" relative="1" as="geometry">
            <mxPoint x="1240" y="760" as="sourcePoint" />
            <mxPoint x="1400" y="760" as="targetPoint" />
          </mxGeometry>
        </mxCell>
        <mxCell id="Vc5DjY2IOqyrCnSLLBrK-90" value="" style="endArrow=block;dashed=1;endFill=0;endSize=12;html=1;rounded=0;exitX=0.5;exitY=1;exitDx=0;exitDy=0;entryX=0;entryY=0.5;entryDx=0;entryDy=0;" edge="1" parent="WIyWlLk6GJQsqaUBKTNV-1" source="Vc5DjY2IOqyrCnSLLBrK-74" target="Vc5DjY2IOqyrCnSLLBrK-41">
          <mxGeometry width="160" relative="1" as="geometry">
            <mxPoint x="1240" y="760" as="sourcePoint" />
            <mxPoint x="1400" y="760" as="targetPoint" />
          </mxGeometry>
        </mxCell>
        <mxCell id="Vc5DjY2IOqyrCnSLLBrK-91" value="" style="endArrow=block;dashed=1;endFill=0;endSize=12;html=1;rounded=0;exitX=0.5;exitY=0;exitDx=0;exitDy=0;entryX=0.503;entryY=1.031;entryDx=0;entryDy=0;entryPerimeter=0;" edge="1" parent="WIyWlLk6GJQsqaUBKTNV-1" source="Vc5DjY2IOqyrCnSLLBrK-71" target="Vc5DjY2IOqyrCnSLLBrK-56">
          <mxGeometry width="160" relative="1" as="geometry">
            <mxPoint x="1380" y="1160" as="sourcePoint" />
            <mxPoint x="1540" y="1160" as="targetPoint" />
          </mxGeometry>
        </mxCell>
        <mxCell id="Vc5DjY2IOqyrCnSLLBrK-92" value="" style="endArrow=block;dashed=1;endFill=0;endSize=12;html=1;rounded=0;exitX=0.5;exitY=0;exitDx=0;exitDy=0;entryX=0.493;entryY=1.056;entryDx=0;entryDy=0;entryPerimeter=0;" edge="1" parent="WIyWlLk6GJQsqaUBKTNV-1" source="Hb2cL3qtt-of7ul1khQC-63" target="Hb2cL3qtt-of7ul1khQC-62">
          <mxGeometry width="160" relative="1" as="geometry">
            <mxPoint x="1290" y="1310" as="sourcePoint" />
            <mxPoint x="1291" y="1233" as="targetPoint" />
          </mxGeometry>
        </mxCell>
      </root>
    </mxGraphModel>
  </diagram>
</mxfile>
